<svg xmlns="http://www.w3.org/2000/svg" viewBox="0 0 29700 21000" width="1000" height="720">
  <path transform="matrix(.97253 0 0 .9979 151.522 476.743)" d="M25176.53 10198.23a11050.638 7755.723 0 1 1-22101.276 0 11050.638 7755.723 0 1 1 22101.275 0z" stroke="#000068" stroke-dasharray="150.742 150.742" stroke-width="75.371" fill="none"/>
  <path transform="matrix(.71812 0 0 .6964 2444.135 3568.22)" d="M25176.53 10198.23a11050.638 7755.723 0 1 1-22101.276 0 11050.638 7755.723 0 1 1 22101.275 0z" stroke="#000068" stroke-dasharray="209.988 209.988" stroke-width="104.994" fill="none"/>
  <path transform="matrix(.36907 0 0 .40168 4857.185 6540.16)" d="M25176.53 10198.23a11050.638 7755.723 0 1 1-22101.276 0 11050.638 7755.723 0 1 1 22101.275 0z" stroke="#000068" stroke-dasharray="385.685 385.685" stroke-width="192.842" fill="none"/>
  <g fill="#000068">
    <path d="M6998.188 4726.22l81.843 123.874 61.97-40.938-81.87-123.875-61.94 40.94zM7161.905 4974l81.844 123.906 61.97-40.937-81.88-123.91-61.94 40.94zm163.72 247.813l81.874 123.874 61.93-40.906-81.88-123.9-61.94 40.94z"/>
    <path d="M7536.818 5474.098l-265.52-132.483 247.798-163.724 17.722 296.21z" stroke="#000068" stroke-width=".533"/>
  </g>
  <g fill="#000068">
    <path d="M18903.75 3970l66.156 33.688 67.375-132.344-66.18-33.688-67.35 132.344zM18769 4234.688l66.156 33.687 67.375-132.344-66.15-33.68-67.37 132.35zm-134.75 264.687l66.188 33.656 67.374-132.31-66.187-33.69-67.375 132.35zm-134.72 264.656l66.158 33.69 67.374-132.34-66.156-33.69-67.375 132.35z"/>
    <path d="M18439.096 4964.583l-15.793-296.316 264.68 134.736-248.887 161.58z" stroke="#000068" stroke-width=".533"/>
  </g>
  <g fill="#000068">
    <path d="M14698.75 5623.906l71.938 18.407 36.812-143.844-71.938-18.41-36.812 143.84zm-73.625 287.75l71.937 18.407 36.813-143.876-71.937-18.406-36.813 143.88zm-73.594 287.72l71.91 18.405 36.81-143.87-71.93-18.37-36.78 143.85zm-73.62 287.75l71.94 18.405 36.81-143.87-71.93-18.4-36.81 143.88zm-41.68 162.936l71.94 18.407 4.877-19.1-71.935-18.41-4.877 19.09z"/>
    <path d="M14429.707 6825.293l-80.19-285.695 287.732 73.614-207.55 212.08z" stroke="#000068" stroke-width=".533"/>
  </g>
  <g fill="#000068">
    <path d="M24454.03 10475.156l4.314 74.125 148.25-8.62-4.313-74.12-148.25 8.63zm-296.5 17.25l4.314 74.125 148.25-8.62-4.313-74.12-148.25 8.63zm-296.5 17.25l4.314 74.125 148.25-8.62-4.313-74.12-148.25 8.63zm-222 12.938l4.314 74.125 73.75-4.32-4.313-74.13-73.75 4.31z"/>
    <path d="M23470.116 10569.596l247.846-163.172 17.25 296.5-265.096-133.328z" stroke="#000068" stroke-width=".533"/>
  </g>
  <g fill="#000068">
    <path d="M19076.188 12102.375l139.062 52.094 26.03-69.57-139.06-52.06-26.032 69.53zm278.124 104.156l139.094 52.07 26.032-69.53-139.063-52.06-26.063 69.53zm278.157 104.16l139.06 52.06 26.03-69.53-139.06-52.06-26.03 69.53zm278.12 104.16l139.09 52.06 26.03-69.53-139.06-52.09-26.06 69.57z"/>
    <path d="M18895.963 11995.255l292.666-48.98-104.15 278.14-188.52-229.16z" stroke="#000068" stroke-width=".533"/>
  </g>
  <g fill="#000068">
    <path d="M13259.5 11150.812l144.78 33 16.532-72.374-144.812-33-16.5 72.374zm289.594 66.032l144.78 33 16.5-72.406-144.78-33-16.5 72.406zm289.562 66l144.782 33 16.5-72.375-144.782-33.04-16.5 72.4z"/>
    <path d="M13031.64 11060.795l283.485-87.685-66.013 289.57-217.472-201.885z" stroke="#000068" stroke-width=".533"/>
  </g>
  <g fill="#000068">
    <path d="M11135 7802.656l72.812 14.438 28.938-145.657-72.844-14.437-28.906 145.656zm-57.844 291.313l72.844 14.46 28.906-145.69-72.812-14.44-28.938 145.66zm-57.812 291.31l72.812 14.47 28.938-145.66-72.844-14.47-28.906 145.65zm-53.938 271.62l72.844 14.47 25-125.97-72.844-14.47-25 125.97z"/>
    <path d="M10968.462 8832.22l-95.635-280.902 291.316 57.83-195.68 223.073z" stroke="#000068" stroke-width=".533"/>
  </g>
  <g fill="#000068">
    <path d="M6157.938 9811.063l142.843 40.593 20.32-71.406-142.84-40.625-20.31 71.438zm285.687 81.218l142.844 40.63 20.31-71.43-142.85-40.59-20.32 71.407zm285.688 81.22l142.812 40.63 20.313-71.44-142.844-40.59-20.282 71.41zm285.656 81.22l74 21.03 20.28-71.4-73.97-21.03-20.31 71.41z"/>
    <path d="M7263.945 10086.916l-287.723 72.58 81.223-285.677 206.5 213.09z" stroke="#000068" stroke-width=".533"/>
  </g>
  <g fill="#000068">
    <path d="M4772.72 9782.813l144.124 35.687 17.843-72.094-144.156-35.656-17.81 72.063zm288.28 71.343l144.156 35.688L5223 9817.75l-144.156-35.656-17.844 72.062zm288.313 71.344l123.656 30.594 17.81-72.063-123.63-30.59-17.85 72.07z"/>
    <path d="M5648.224 9961.22l-285.053 82.446 71.34-288.306 213.72 205.86z" stroke="#000068" stroke-width=".533"/>
  </g>
  <g fill="#000068">
    <path d="M6451.438 15489.25l54.687 50.22 100.47-109.345-54.658-50.25-100.5 109.375zm-200.938 218.688l54.688 50.25 100.468-109.376-54.687-50.218-100.47 109.344zm-200.938 218.687l54.657 50.25 100.46-109.344-54.66-50.25-100.47 109.35z"/>
    <path d="M6763.845 15204.124l-64.472 289.647-218.698-200.94 283.17-88.7z" stroke="#000068" stroke-width=".533"/>
  </g>
  <g fill="#000068">
    <path d="M10163.062 14881.22l72.844 14.436.063-.25-72.85-14.437-.07.25zm-57.718 291.342l72.812 14.438 28.875-145.688-72.84-14.437-28.84 145.687zm-57.75 291.313l72.844 14.437 28.843-145.656-72.81-14.437-28.87 145.65zm-57.75 291.344l72.844 14.43 28.874-145.66-72.843-14.44-28.88 145.66z"/>
    <path d="M10232.855 14720.077l95.723 280.873-291.334-57.74 195.61-223.133z" stroke="#000068" stroke-width=".533"/>
  </g>
  <g fill="#000068">
    <path d="M17185.344 17226.03l32.062 145 72.5-16-32.062-145-72.5 16zm64.125 290l32.03 145 72.5-16.03-32.03-144.97-72.5 16zm64.09 290l32.06 145 72.5-16.03-32.07-145-72.5 16.03z"/>
    <path d="M17182.677 17041.944l200.452 218.795-290 64.1 89.54-282.9z" stroke="#000068" stroke-width=".533"/>
  </g>
  <g fill="#000068">
    <path d="M9111.656 12753.812l70.47 23.313 7.936-23.906-70.5-23.32-7.906 23.9zm-93.344 281.938l70.5 23.344 46.657-140.97-70.5-23.343-46.66 140.97zm-93.343 281.97l70.5 23.31 46.65-140.968-70.47-23.343-46.69 141zm-93.32 281.936l70.47 23.344 46.68-140.97-70.5-23.342-46.66 140.968z"/>
    <path d="M9208.663 12578.877l60.242 290.557-281.953-93.335 221.71-197.23z" stroke="#000068" stroke-width=".533"/>
  </g>
  <text y="1293" x="594" font-size="1425.6" font-family="Times, Times New Roman, serif">
    <tspan y="1293" x="594">y</tspan>
  </text>
  <text y="4692.077" x="22670.023" font-size="1425.6" font-family="Times, Times New Roman, serif" font-style="italic" fill="red">
    <tspan y="4692.077" x="22670.023">g(x,y) = c</tspan>
  </text>
  <text y="10219.571" x="8090.071" font-size="1425.6" font-style="italic" fill="#000068" font-family="Times, Times New Roman, serif">
    <tspan y="10219.571" x="8090.071">f(x,y) = d</tspan>
  </text>
  <text y="10604.37" x="13356.573" font-size="712.8" font-style="italic" fill="#000068" font-family="Times, Times New Roman, serif">
    <tspan y="10604.37" x="13356.573">1</tspan>
  </text>
  <text y="16222.065" x="16348.42" font-size="1128.6" font-style="italic" fill="#000068" font-family="Times, Times New Roman, serif">
    <tspan y="16222.065" x="16348.42">f(x,y) = d</tspan>
  </text>
  <text y="16432.156" x="20581.205" font-size="623.7" font-style="italic" fill="#000068" font-family="Times, Times New Roman, serif">
    <tspan y="16432.156" x="20581.205">2</tspan>
  </text>
  <path d="M891 19669.875v74.25h26734.25v-74.25H891z"/>
  <path d="M27967.987 19707l-513.81 297v-594l513.81 297z" stroke="#000" stroke-width="1.067"/>
  <text y="20658" x="28302" font-size="1425.6" font-family="Times, Times New Roman, serif">
    <tspan y="20658" x="28302">x</tspan>
  </text>
  <path d="M1447.875 2161.53v18113.72h74.25V2161.53h-74.25z"/>
  <path d="M1485 1818.8l297 513.81h-594l297-513.81z" stroke="#000" stroke-width="1.067"/>
  <path d="M4482.844 19660.593c297 0 5981.764-1786.64 7257.937-2830.78 1004.67-649.29 1503.57-1717.032 1782-2784.376 220.8-892.794 303.89-1928.392 552.24-2747.25 338.98-1147.337 1308.91-2004.724 2321.64-2467.265 904.92-580.078 3336.35-1455.647 4165.96-1686.094 1484.996-510.47 6394.78-1902.656 6394.78-1902.656" stroke="red" stroke-width="74.25" fill="none"/>
  <g fill="red">
    <path d="M11972 16694.344l-61.47 41.687 490.5 723.25 61.44-41.65-490.47-723.28z"/>
    <path d="M12527.936 17580.29l-267.095-129.276 245.81-166.696 21.29 295.972z" stroke="red" stroke-width=".533"/>
  </g>
  <g fill="red">
    <path d="M14098.53 11258.53l-18.28 71.97 1087.28 276.438 18.282-71.938-1087.28-276.47z"/>
    <path d="M15342.75 11613.196l-285.577 80.615 73.186-287.84 212.39 207.23z" stroke="red" stroke-width=".533"/>
  </g>
  <g fill="red">
    <path d="M20431.562 7156l-69 27.438 286.188 719.937 68.97-27.438L20431.56 7156z"/>
    <path d="M20746.533 8048.904l-232.892-183.886 276-109.703-43.1 293.59z" stroke="red" stroke-width=".533"/>
  </g>
  <text y="17682.027" x="20785.795" font-size="1128.6" font-style="italic" fill="#000068" font-family="Times, Times New Roman, serif">
    <tspan y="17682.027" x="20785.795">f(x,y) = d</tspan>
  </text>
  <text y="17892.117" x="25018.58" font-size="623.7" font-style="italic" fill="#000068" font-family="Times, Times New Roman, serif">
    <tspan y="17892.117" x="25018.58">3</tspan>
  </text>
</svg>
